# xmcd
#
# Track frame offsets:
#	150
#	14330
#	33257
#	49344
#	63099
#	83554
#	101346
#	117956
#	132563
#	151113
#
# Disc length: 2212 seconds
# Revision: 7
# Processed by: cddbd v1.5.2PL0 Copyright (c) Steve Scherf et al.
# Submitted via: dBpowerAMP V12.0
#
DISCID=7308a20a
DTITLE=Kelly Willis - Easy
DYEAR=2002
DGENRE=Country
TTITLE0=If I Left You
TTITLE1=Easy (As Falling Apart)
TTITLE2=What Did You Think
TTITLE3=You Can't Take It With You
TTITLE4=Getting to Me
TTITLE5=Don't Come the Cowboy With Me Sonny Jim!
TTITLE6=Wait Until Dark
TTITLE7=Find Another Fool
TTITLE8=Not What I Had in Mind
TTITLE9=Reason to Believe
EXTD=
EXTT0=
EXTT1=
EXTT2=
EXTT3=
EXTT4=
EXTT5=
EXTT6=
EXTT7=
EXTT8=
EXTT9=
PLAYORDER=
